<svg id="visual" viewBox="0 0 900 600" width="900" height="600" xmlns="http://www.w3.org/2000/svg" xmlns:xlink="http://www.w3.org/1999/xlink" version="1.1"><path d="M0 73L82 73L82 103L164 103L164 145L245 145L245 61L327 61L327 145L409 145L409 139L491 139L491 97L573 97L573 133L655 133L655 121L736 121L736 151L818 151L818 67L900 67L900 157L900 0L900 0L818 0L818 0L736 0L736 0L655 0L655 0L573 0L573 0L491 0L491 0L409 0L409 0L327 0L327 0L245 0L245 0L164 0L164 0L82 0L82 0L0 0Z" fill="#330860"></path><path d="M0 115L82 115L82 139L164 139L164 205L245 205L245 115L327 115L327 187L409 187L409 187L491 187L491 145L573 145L573 199L655 199L655 193L736 193L736 193L818 193L818 145L900 145L900 193L900 155L900 65L818 65L818 149L736 149L736 119L655 119L655 131L573 131L573 95L491 95L491 137L409 137L409 143L327 143L327 59L245 59L245 143L164 143L164 101L82 101L82 71L0 71Z" fill="#301765"></path><path d="M0 307L82 307L82 385L164 385L164 337L245 337L245 331L327 331L327 283L409 283L409 289L491 289L491 409L573 409L573 307L655 307L655 397L736 397L736 331L818 331L818 379L900 379L900 283L900 191L900 143L818 143L818 191L736 191L736 191L655 191L655 197L573 197L573 143L491 143L491 185L409 185L409 185L327 185L327 113L245 113L245 203L164 203L164 137L82 137L82 113L0 113Z" fill="#2d216a"></path><path d="M0 505L82 505L82 559L164 559L164 529L245 529L245 547L327 547L327 487L409 487L409 523L491 523L491 505L573 505L573 505L655 505L655 499L736 499L736 535L818 535L818 517L900 517L900 529L900 281L900 377L818 377L818 329L736 329L736 395L655 395L655 305L573 305L573 407L491 407L491 287L409 287L409 281L327 281L327 329L245 329L245 335L164 335L164 383L82 383L82 305L0 305Z" fill="#2b2a6d"></path><path d="M0 601L82 601L82 601L164 601L164 601L245 601L245 601L327 601L327 601L409 601L409 601L491 601L491 601L573 601L573 601L655 601L655 601L736 601L736 601L818 601L818 601L900 601L900 601L900 527L900 515L818 515L818 533L736 533L736 497L655 497L655 503L573 503L573 503L491 503L491 521L409 521L409 485L327 485L327 545L245 545L245 527L164 527L164 557L82 557L82 503L0 503Z" fill="#2a3270"></path></svg>